<?xml version="1.0" encoding="UTF-8"?>
<svg xmlns="http://www.w3.org/2000/svg" xmlns:xlink="http://www.w3.org/1999/xlink" width="864pt" height="216pt" viewBox="0 0 864 216" version="1.1">
<g id="surface11">
<rect x="0" y="0" width="864" height="216" style="fill:rgb(100%,100%,100%);fill-opacity:1;stroke:none;"/>
<path style="fill:none;stroke-width:1.066978;stroke-linecap:round;stroke-linejoin:round;stroke:rgb(100%,100%,100%);stroke-opacity:1;stroke-miterlimit:10;" d="M 0 216 L 864 216 L 864 0 L 0 0 Z M 0 216 "/>
<path style=" stroke:none;fill-rule:nonzero;fill:rgb(77.647059%,83.921569%,54.117647%);fill-opacity:1;" d="M 46.871094 178.070313 L 414.046875 178.070313 L 414.046875 30.136719 L 46.871094 30.136719 Z M 46.871094 178.070313 "/>
<path style=" stroke:none;fill-rule:nonzero;fill:rgb(72.941176%,69.019608%,78.823529%);fill-opacity:1;" d="M 735.613281 178.070313 L 741.410156 178.070313 L 741.410156 30.136719 L 735.613281 30.136719 Z M 735.613281 178.070313 "/>
<path style=" stroke:none;fill-rule:nonzero;fill:rgb(47.45098%,57.647059%,21.176471%);fill-opacity:1;" d="M 453.082031 178.070313 L 613.480469 178.070313 L 613.480469 30.136719 L 453.082031 30.136719 Z M 453.082031 178.070313 "/>
<path style=" stroke:none;fill-rule:nonzero;fill:rgb(71.372549%,34.117647%,9.803922%);fill-opacity:1;" d="M 414.042969 178.070313 L 453.078125 178.070313 L 453.078125 30.136719 L 414.042969 30.136719 Z M 414.042969 178.070313 "/>
<path style=" stroke:none;fill-rule:nonzero;fill:rgb(47.45098%,11.764706%,19.607843%);fill-opacity:1;" d="M 613.480469 178.070313 L 673 178.070313 L 673 30.136719 L 613.480469 30.136719 Z M 613.480469 178.070313 "/>
<path style=" stroke:none;fill-rule:nonzero;fill:rgb(41.176471%,41.960784%,37.254902%);fill-opacity:1;" d="M 741.410156 178.070313 L 819.871094 178.070313 L 819.871094 30.136719 L 741.410156 30.136719 Z M 741.410156 178.070313 "/>
<path style=" stroke:none;fill-rule:nonzero;fill:rgb(29.019608%,57.254902%,56.078431%);fill-opacity:1;" d="M 673 178.070313 L 735.613281 178.070313 L 735.613281 30.136719 L 673 30.136719 Z M 673 178.070313 "/>
<path style="fill:none;stroke-width:1.066978;stroke-linecap:butt;stroke-linejoin:round;stroke:rgb(20%,20%,20%);stroke-opacity:1;stroke-miterlimit:10;" d="M 46.871094 205.464844 L 46.871094 202.726563 "/>
<path style="fill:none;stroke-width:1.066978;stroke-linecap:butt;stroke-linejoin:round;stroke:rgb(20%,20%,20%);stroke-opacity:1;stroke-miterlimit:10;" d="M 240.121094 205.464844 L 240.121094 202.726563 "/>
<path style="fill:none;stroke-width:1.066978;stroke-linecap:butt;stroke-linejoin:round;stroke:rgb(20%,20%,20%);stroke-opacity:1;stroke-miterlimit:10;" d="M 433.371094 205.464844 L 433.371094 202.726563 "/>
<path style="fill:none;stroke-width:1.066978;stroke-linecap:butt;stroke-linejoin:round;stroke:rgb(20%,20%,20%);stroke-opacity:1;stroke-miterlimit:10;" d="M 626.621094 205.464844 L 626.621094 202.726563 "/>
<path style="fill:none;stroke-width:1.066978;stroke-linecap:butt;stroke-linejoin:round;stroke:rgb(20%,20%,20%);stroke-opacity:1;stroke-miterlimit:10;" d="M 819.871094 205.464844 L 819.871094 202.726563 "/>
</g>
</svg>
